<svg xmlns:xlink="http://www.w3.org/1999/xlink" xmlns="http://www.w3.org/2000/svg" viewBox="0 0 24 24" role="img" class="sc-bdVaJa src___StyledBox-sc-fochin-0 caKpkk" width="24"  height="24" ><defs><symbol id="SvgFacebook"><path d="M22.68 0H1.32A1.32 1.32 0 000 1.32v21.36A1.32 1.32 0 001.32 24h11.51v-9.28H9.7v-3.63h3.13V8.41c0-3.1 1.88-4.79 4.65-4.79H18.87c.47 0 .93.06 1.4.11V7h-1.92a3 3 0 00-.71.07c-.87.21-1.07.84-1.07 1.69v2.31h3.6l-.47 3.63h-3.15V24h6.13A1.32 1.32 0 0024 22.68V1.32A1.32 1.32 0 0022.68 0z"></path></symbol></defs><title>facebook</title><use xlink:href="#SvgFacebook" fill="#FFFFFF"></use></svg>