<svg xmlns:xlink="http://www.w3.org/1999/xlink" xmlns="http://www.w3.org/2000/svg" viewBox="0 0 24 24" role="img" class="sc-bdVaJa src___StyledBox-sc-fochin-0 caKpkk" width="24"  height="24" ><defs><symbol id="SvgTwitter"><path d="M22.67 0H1.33A1.32 1.32 0 000 1.33v21.34A1.32 1.32 0 001.33 24h21.34A1.32 1.32 0 0024 22.67V1.33A1.32 1.32 0 0022.67 0zM18.4 8.78c-.11 5.53-3.6 9.38-8.9 9.62A8.77 8.77 0 014.33 17 6.4 6.4 0 009 15.64a3.25 3.25 0 01-3-2.29 4.84 4.84 0 001.32 0 3.27 3.27 0 01-2.51-3.25 2.42 2.42 0 001.32.36 3.55 3.55 0 01-1-4.33 9.5 9.5 0 006.65 3.37c-.78-3.37 3.74-5.17 5.54-2.89a8.17 8.17 0 002.05-.72 3.32 3.32 0 01-1.32 1.8 6.46 6.46 0 001.68-.48c-.12.61-.73 1.09-1.33 1.57z"></path></symbol></defs><title>twitter</title><use xlink:href="#SvgTwitter" fill="#FFFFFF"></use></svg>