<svg xmlns:xlink="http://www.w3.org/1999/xlink" xmlns="http://www.w3.org/2000/svg" viewBox="0 0 24 24" role="img" class="sc-bdVaJa src___StyledBox-sc-fochin-0 glsbVr" width="24"  height="24" ><defs><symbol id="SvgAsk"><path d="M12 0a12 12 0 1012 12A12 12 0 0012 0zm1.24 18.87a1.3 1.3 0 01-2.59 0v-.11a1.3 1.3 0 112.59 0zM14.58 13a2.94 2.94 0 00-1.34 2.5v.54h-2.61v-.71c0-1.64.41-2.48 2-3.75a2.8 2.8 0 001.29-2.38A1.83 1.83 0 0012 7.15c-1.14 0-1.89.85-2.07 2.16a1.27 1.27 0 01-2.5-.19 1.1 1.1 0 010-.31 4.43 4.43 0 014.63-4 4.16 4.16 0 014.44 4.31A4.59 4.59 0 0114.58 13z"></path></symbol></defs><use xlink:href="#SvgAsk" fill="#4183D7"></use></svg>