<svg xmlns:xlink="http://www.w3.org/1999/xlink" xmlns="http://www.w3.org/2000/svg" viewBox="0 0 24 24" role="img" class="sc-bdVaJa src___StyledBox-sc-fochin-0 cJyDwH" width="24"  height="24" ><defs><symbol id="SvgNotificationoutline"><path d="M12 24a2.49 2.49 0 002.5-2.46h-5A2.48 2.48 0 0012 24zM21.13 18.2l-1.62-1.58v-6.16c0-3.78-2.05-6.94-5.63-7.78v-.83a1.88 1.88 0 00-3.76 0v.83c-3.59.84-5.63 4-5.63 7.78v6.16L2.87 18.2a1.23 1.23 0 00.88 2.11h16.49a1.23 1.23 0 00.89-2.11zM17 17.85H7v-7.39c0-3.05 1.89-5.54 5-5.54s5 2.49 5 5.54z"></path></symbol></defs><use xlink:href="#SvgNotificationoutline" fill="#1A1A1A"></use></svg>