<svg xmlns:xlink="http://www.w3.org/1999/xlink" xmlns="http://www.w3.org/2000/svg" viewBox="0 0 24 24" role="img" class="sc-bdVaJa src___StyledBox-sc-fochin-0 cJyDwH" width="24"  height="24" ><defs><symbol id="SvgHeartoutline"><path d="M21.19 2.24A6.76 6.76 0 0012 3.61a6.76 6.76 0 00-9.19-1.37A6.89 6.89 0 000 7.58c-.16 4.84 4 8.72 10.26 14.66l.12.12a2.32 2.32 0 003.23 0l.13-.12C20 16.29 24.15 12.41 24 7.57a6.89 6.89 0 00-2.81-5.33zm-9.07 18.15l-.12.12-.12-.12C6.17 15 2.4 11.46 2.4 7.86a4.18 4.18 0 014.2-4.37 4.68 4.68 0 014.28 3h2.25a4.66 4.66 0 014.27-3 4.18 4.18 0 014.2 4.37c0 3.6-3.77 7.14-9.48 12.53z"></path></symbol></defs><use xlink:href="#SvgHeartoutline" fill="#1A1A1A"></use></svg>