<svg xmlns:xlink="http://www.w3.org/1999/xlink" xmlns="http://www.w3.org/2000/svg" viewBox="0 0 24 24" display="inline-block" role="img" class="sc-bdVaJa src___StyledBox-sc-fochin-0 jphHQj" width="24"  height="24" ><defs><symbol id="SvgNewadoutline"><path d="M17.33 10.67h-4v-4a1.33 1.33 0 10-2.66 0v4h-4a1.33 1.33 0 100 2.66h4v4a1.33 1.33 0 102.66 0v-4h4a1.33 1.33 0 100-2.66z"></path><path d="M21.6 0H2.4A2.41 2.41 0 000 2.4v19.2A2.41 2.41 0 002.4 24h19.2a2.41 2.41 0 002.4-2.4V2.4A2.41 2.41 0 0021.6 0zm0 20.4a1.2 1.2 0 01-1.2 1.2H3.6a1.2 1.2 0 01-1.2-1.2V3.6a1.2 1.2 0 011.2-1.2h16.8a1.2 1.2 0 011.2 1.2v16.8z"></path></symbol></defs><title>Déposer votre annonce</title><use xlink:href="#SvgNewadoutline" fill="#FFFFFF"></use></svg>