<svg xmlns:xlink="http://www.w3.org/1999/xlink" xmlns="http://www.w3.org/2000/svg" viewBox="0 0 24 25" role="img" class="sc-bdVaJa src___StyledBox-sc-fochin-0 caKpkk" width="24"  height="25" ><defs><symbol id="SvgInstagram"><path d="M12 2.662c3.204 0 3.584.012 4.849.07 1.17.054 1.805.249 2.228.413.56.218.96.478 1.38.898.42.42.68.82.898 1.38.164.423.36 1.058.413 2.228.058 1.265.07 1.645.07 4.849s-.012 3.584-.07 4.849c-.054 1.17-.249 1.805-.413 2.228-.218.56-.478.96-.898 1.38-.42.42-.82.68-1.38.898-.423.164-1.058.36-2.228.413-1.265.058-1.645.07-4.849.07s-3.584-.012-4.849-.07c-1.17-.053-1.805-.249-2.228-.413a3.718 3.718 0 01-1.38-.898c-.42-.42-.68-.82-.898-1.38-.164-.423-.36-1.058-.413-2.228-.058-1.265-.07-1.645-.07-4.849s.012-3.584.07-4.849c.053-1.17.249-1.805.413-2.228.218-.56.478-.96.898-1.38.42-.42.82-.68 1.38-.898.423-.164 1.058-.36 2.228-.413 1.265-.058 1.645-.07 4.849-.07M12 .5C8.74.5 8.332.514 7.052.572c-1.277.059-2.15.261-2.913.558a5.882 5.882 0 00-2.125 1.384A5.882 5.882 0 00.63 4.64c-.297.763-.5 1.635-.558 2.912C.014 8.832 0 9.241 0 12.5c0 3.26.014 3.668.072 4.948.058 1.277.261 2.15.558 2.913.307.789.717 1.458 1.384 2.125A5.882 5.882 0 004.14 23.87c.764.297 1.636.5 2.913.558 1.28.058 1.689.072 4.948.072 3.259 0 3.668-.014 4.948-.072 1.277-.058 2.15-.261 2.912-.558a5.882 5.882 0 002.126-1.384 5.882 5.882 0 001.384-2.125c.297-.764.5-1.636.558-2.913.058-1.28.072-1.689.072-4.948 0-3.259-.014-3.668-.072-4.948-.059-1.277-.261-2.15-.558-2.912a5.882 5.882 0 00-1.384-2.126A5.882 5.882 0 0019.86 1.13c-.763-.297-1.635-.5-2.912-.558C15.668.514 15.259.5 12 .5zm0 5.838a6.162 6.162 0 100 12.324 6.162 6.162 0 000-12.324zM12 16.5a4 4 0 110-8 4 4 0 010 8zm7.846-10.406a1.44 1.44 0 11-2.88 0 1.44 1.44 0 012.88 0z" fill-rule="evenodd"></path></symbol></defs><title>instagram</title><use xlink:href="#SvgInstagram" fill="#FFFFFF"></use></svg>