<svg xmlns:xlink="http://www.w3.org/1999/xlink" xmlns="http://www.w3.org/2000/svg" viewBox="0 0 24 24" display="block" role="img" class="sc-bdVaJa src___StyledBox-sc-fochin-0 cHVNUF" width="24"  height="24" ><defs><symbol id="SvgListing"><path d="M2 10.1a1.9 1.9 0 100 3.8 1.9 1.9 0 100-3.8zm0-7.6a1.92 1.92 0 00-2 1.9 1.92 1.92 0 002 1.9 1.9 1.9 0 100-3.8zm0 15.2a1.9 1.9 0 100 3.8 1.9 1.9 0 100-3.8zm5.19 3.17H22.7a1.27 1.27 0 100-2.54H7.14a1.27 1.27 0 100 2.54zm0-7.6H22.7a1.27 1.27 0 100-2.54H7.14a1.27 1.27 0 100 2.54zM5.84 4.4a1.28 1.28 0 001.3 1.27H22.7a1.27 1.27 0 100-2.54H7.14a1.28 1.28 0 00-1.3 1.27z"></path></symbol></defs><use xlink:href="#SvgListing" fill="#1A1A1A"></use></svg>