<svg xmlns:xlink="http://www.w3.org/1999/xlink" xmlns="http://www.w3.org/2000/svg" viewBox="0 0 20 14" role="img" class="sc-bdVaJa src___StyledBox-sc-fochin-0 ivuIYO" width="20"  height="14" ><defs><symbol id="SvgBurgermenu"><path d="M1.111 14H18.89C19.5 14 20 13.475 20 12.833c0-.641-.5-1.166-1.111-1.166H1.11C.5 11.667 0 12.192 0 12.833 0 13.475.5 14 1.111 14zm0-5.833H18.89C19.5 8.167 20 7.642 20 7s-.5-1.167-1.111-1.167H1.11C.5 5.833 0 6.358 0 7s.5 1.167 1.111 1.167zM0 1.167c0 .641.5 1.166 1.111 1.166H18.89C19.5 2.333 20 1.808 20 1.167 20 .525 19.5 0 18.889 0H1.11C.5 0 0 .525 0 1.167z" fill-rule="evenodd"></path></symbol></defs><title>Ouvrir le menu</title><use xlink:href="#SvgBurgermenu" fill="#FF6E14"></use></svg>