<svg xmlns:xlink="http://www.w3.org/1999/xlink" xmlns="http://www.w3.org/2000/svg"   class="sc-bdVaJa fabXAL" width="100"  height="100" ><symbol id="SvgSearch"><path d="M23.58 21.45l-7-7a9.42 9.42 0 001.62-6.87A9.13 9.13 0 0010.34.07a9.25 9.25 0 00-2.81 18.27 9.25 9.25 0 007-1.76l7 7a1.54 1.54 0 002.11 0 1.56 1.56 0 00-.06-2.13zM9.22 15.5a6.37 6.37 0 116.33-6.37 6.33 6.33 0 01-6.33 6.37z"></path></symbol><symbol id="SvgClose"><path d="M23.47 20.9l-8.9-8.9 8.9-8.9A1.81 1.81 0 0020.9.55L12 9.43 3.1.53A1.82 1.82 0 00.53 3.1l8.9 8.9-8.9 8.9a1.82 1.82 0 002.57 2.57l8.9-8.9 8.9 8.9a1.82 1.82 0 002.57-2.57z"></path></symbol><symbol id="SvgListing"><path d="M2 10.1a1.9 1.9 0 100 3.8 1.9 1.9 0 100-3.8zm0-7.6a1.92 1.92 0 00-2 1.9 1.92 1.92 0 002 1.9 1.9 1.9 0 100-3.8zm0 15.2a1.9 1.9 0 100 3.8 1.9 1.9 0 100-3.8zm5.19 3.17H22.7a1.27 1.27 0 100-2.54H7.14a1.27 1.27 0 100 2.54zm0-7.6H22.7a1.27 1.27 0 100-2.54H7.14a1.27 1.27 0 100 2.54zM5.84 4.4a1.28 1.28 0 001.3 1.27H22.7a1.27 1.27 0 100-2.54H7.14a1.28 1.28 0 00-1.3 1.27z"></path></symbol><symbol id="SvgChevrondown"><path d="M23.37 5.62a2.15 2.15 0 00-3 0L12 13.87 3.68 5.62a2.2 2.2 0 00-3.05 0 2.1 2.1 0 000 3l9.86 9.76a2.14 2.14 0 003 0l9.86-9.76a2.1 2.1 0 00.02-3z"></path></symbol><symbol id="SvgAsk"><path d="M12 0a12 12 0 1012 12A12 12 0 0012 0zm1.24 18.87a1.3 1.3 0 01-2.59 0v-.11a1.3 1.3 0 112.59 0zM14.58 13a2.94 2.94 0 00-1.34 2.5v.54h-2.61v-.71c0-1.64.41-2.48 2-3.75a2.8 2.8 0 001.29-2.38A1.83 1.83 0 0012 7.15c-1.14 0-1.89.85-2.07 2.16a1.27 1.27 0 01-2.5-.19 1.1 1.1 0 010-.31 4.43 4.43 0 014.63-4 4.16 4.16 0 014.44 4.31A4.59 4.59 0 0114.58 13z"></path></symbol><symbol id="SvgMarker"><path d="M12 0a8.81 8.81 0 00-9 8.63c0 5.14 5.68 12.23 8 14.93a1.32 1.32 0 002 0c2.33-2.7 8-9.79 8-14.93A8.81 8.81 0 0012 0zm0 11.71a3.15 3.15 0 01-3.21-3.08A3.15 3.15 0 0112 5.55a3.15 3.15 0 013.21 3.08A3.15 3.15 0 0112 11.71z"></path></symbol><symbol id="SvgMore"><path d="M12 0a12 12 0 1012 12A12 12 0 0012 0zm4.8 13.2h-3.6v3.6a1.2 1.2 0 01-2.4 0v-3.6H7.2a1.2 1.2 0 110-2.4h3.6V7.2a1.2 1.2 0 112.4 0v3.6h3.6a1.2 1.2 0 010 2.4z"></path></symbol><symbol id="SvgFlagFr"><g fill-rule="nonzero" fill="none"><path d="M170.667 335.724H8.828A8.829 8.829 0 010 326.896V9.103A8.829 8.829 0 018.828.275h161.839v335.449z" fill="#41479B"></path><path fill="#F5F5F5" d="M170.67.276h170.67v335.448H170.67z"></path><path d="M503.172 335.724H341.333V.276h161.839A8.829 8.829 0 01512 9.104v317.793a8.828 8.828 0 01-8.828 8.827z" fill="#FF4B55"></path></g></symbol><symbol id="SvgFacebook"><path d="M22.68 0H1.32A1.32 1.32 0 000 1.32v21.36A1.32 1.32 0 001.32 24h11.51v-9.28H9.7v-3.63h3.13V8.41c0-3.1 1.88-4.79 4.65-4.79H18.87c.47 0 .93.06 1.4.11V7h-1.92a3 3 0 00-.71.07c-.87.21-1.07.84-1.07 1.69v2.31h3.6l-.47 3.63h-3.15V24h6.13A1.32 1.32 0 0024 22.68V1.32A1.32 1.32 0 0022.68 0z"></path></symbol><symbol id="SvgTwitter"><path d="M22.67 0H1.33A1.32 1.32 0 000 1.33v21.34A1.32 1.32 0 001.33 24h21.34A1.32 1.32 0 0024 22.67V1.33A1.32 1.32 0 0022.67 0zM18.4 8.78c-.11 5.53-3.6 9.38-8.9 9.62A8.77 8.77 0 014.33 17 6.4 6.4 0 009 15.64a3.25 3.25 0 01-3-2.29 4.84 4.84 0 001.32 0 3.27 3.27 0 01-2.51-3.25 2.42 2.42 0 001.32.36 3.55 3.55 0 01-1-4.33 9.5 9.5 0 006.65 3.37c-.78-3.37 3.74-5.17 5.54-2.89a8.17 8.17 0 002.05-.72 3.32 3.32 0 01-1.32 1.8 6.46 6.46 0 001.68-.48c-.12.61-.73 1.09-1.33 1.57z"></path></symbol><symbol id="SvgInstagram"><path d="M12 2.662c3.204 0 3.584.012 4.849.07 1.17.054 1.805.249 2.228.413.56.218.96.478 1.38.898.42.42.68.82.898 1.38.164.423.36 1.058.413 2.228.058 1.265.07 1.645.07 4.849s-.012 3.584-.07 4.849c-.054 1.17-.249 1.805-.413 2.228-.218.56-.478.96-.898 1.38-.42.42-.82.68-1.38.898-.423.164-1.058.36-2.228.413-1.265.058-1.645.07-4.849.07s-3.584-.012-4.849-.07c-1.17-.053-1.805-.249-2.228-.413a3.718 3.718 0 01-1.38-.898c-.42-.42-.68-.82-.898-1.38-.164-.423-.36-1.058-.413-2.228-.058-1.265-.07-1.645-.07-4.849s.012-3.584.07-4.849c.053-1.17.249-1.805.413-2.228.218-.56.478-.96.898-1.38.42-.42.82-.68 1.38-.898.423-.164 1.058-.36 2.228-.413 1.265-.058 1.645-.07 4.849-.07M12 .5C8.74.5 8.332.514 7.052.572c-1.277.059-2.15.261-2.913.558a5.882 5.882 0 00-2.125 1.384A5.882 5.882 0 00.63 4.64c-.297.763-.5 1.635-.558 2.912C.014 8.832 0 9.241 0 12.5c0 3.26.014 3.668.072 4.948.058 1.277.261 2.15.558 2.913.307.789.717 1.458 1.384 2.125A5.882 5.882 0 004.14 23.87c.764.297 1.636.5 2.913.558 1.28.058 1.689.072 4.948.072 3.259 0 3.668-.014 4.948-.072 1.277-.058 2.15-.261 2.912-.558a5.882 5.882 0 002.126-1.384 5.882 5.882 0 001.384-2.125c.297-.764.5-1.636.558-2.913.058-1.28.072-1.689.072-4.948 0-3.259-.014-3.668-.072-4.948-.059-1.277-.261-2.15-.558-2.912a5.882 5.882 0 00-1.384-2.126A5.882 5.882 0 0019.86 1.13c-.763-.297-1.635-.5-2.912-.558C15.668.514 15.259.5 12 .5zm0 5.838a6.162 6.162 0 100 12.324 6.162 6.162 0 000-12.324zM12 16.5a4 4 0 110-8 4 4 0 010 8zm7.846-10.406a1.44 1.44 0 11-2.88 0 1.44 1.44 0 012.88 0z" fill-rule="evenodd"></path></symbol><symbol id="SvgPinterest"><path d="M0 12c0 4.914 2.955 9.135 7.183 10.99-.034-.837-.006-1.843.209-2.755l1.544-6.538s-.383-.767-.383-1.9c0-1.777 1.03-3.105 2.314-3.105 1.091 0 1.619.82 1.619 1.801 0 1.097-.7 2.739-1.06 4.259-.3 1.273.638 2.31 1.894 2.31 2.274 0 3.805-2.92 3.805-6.38 0-2.63-1.771-4.598-4.993-4.598-3.64 0-5.908 2.715-5.908 5.747 0 1.045.308 1.783.79 2.354.223.262.254.367.173.668l-.244.963c-.08.304-.326.413-.6.3-1.678-.684-2.458-2.52-2.458-4.584 0-3.408 2.875-7.496 8.576-7.496 4.582 0 7.597 3.315 7.597 6.874 0 4.708-2.617 8.224-6.475 8.224-1.295 0-2.514-.7-2.932-1.495 0 0-.696 2.764-.844 3.298-.254.925-.752 1.85-1.208 2.57 1.08.32 2.22.493 3.401.493 6.627 0 12-5.373 12-12S18.627 0 12 0 0 5.373 0 12z" fill-rule="evenodd"></path></symbol><symbol id="SvgNewadoutline"><path d="M17.33 10.67h-4v-4a1.33 1.33 0 10-2.66 0v4h-4a1.33 1.33 0 100 2.66h4v4a1.33 1.33 0 102.66 0v-4h4a1.33 1.33 0 100-2.66z"></path><path d="M21.6 0H2.4A2.41 2.41 0 000 2.4v19.2A2.41 2.41 0 002.4 24h19.2a2.41 2.41 0 002.4-2.4V2.4A2.41 2.41 0 0021.6 0zm0 20.4a1.2 1.2 0 01-1.2 1.2H3.6a1.2 1.2 0 01-1.2-1.2V3.6a1.2 1.2 0 011.2-1.2h16.8a1.2 1.2 0 011.2 1.2v16.8z"></path></symbol><symbol id="SvgChevronleft"><path d="M10.13 12l8.25-8.33a2.15 2.15 0 000-3 2.1 2.1 0 00-3 0l-9.76 9.82a2.14 2.14 0 000 3l9.76 9.86a2.1 2.1 0 003 0 2.2 2.2 0 000-3.05z"></path></symbol><symbol id="SvgChevronright"><path d="M18.38 10.49L8.62.63a2.1 2.1 0 00-3 0 2.15 2.15 0 000 3L13.87 12l-8.25 8.32a2.2 2.2 0 000 3.05 2.1 2.1 0 003 0l9.76-9.86a2.14 2.14 0 000-3.02z"></path></symbol><symbol id="SvgBurgermenu"><path d="M1.111 14H18.89C19.5 14 20 13.475 20 12.833c0-.641-.5-1.166-1.111-1.166H1.11C.5 11.667 0 12.192 0 12.833 0 13.475.5 14 1.111 14zm0-5.833H18.89C19.5 8.167 20 7.642 20 7s-.5-1.167-1.111-1.167H1.11C.5 5.833 0 6.358 0 7s.5 1.167 1.111 1.167zM0 1.167c0 .641.5 1.166 1.111 1.166H18.89C19.5 2.333 20 1.808 20 1.167 20 .525 19.5 0 18.889 0H1.11C.5 0 0 .525 0 1.167z" fill-rule="evenodd"></path></symbol><symbol id="SvgLeboncoinlogo"><path d="M58.29 36.625c3.604-.006 5.83-2.864 5.83-7.11 0-4.25-2.22-7.1-5.82-7.1s-5.81 2.84-5.81 7.1c0 4.256 2.206 7.104 5.8 7.11zm2.7-21.1c6.87 0 11.4 5.92 11.5 13.89 0 8.1-4.74 14.1-11.69 14.1a10 10 0 01-8.66-4.63h-.11v4.11h-7.54V6.915c0-2.75 1.83-4.47 4-4.47s4 1.72 4 4.47v12.86h.11a10.212 10.212 0 018.39-4.25zm27.76 21.1c3.61 0 5.81-2.86 5.81-7.11s-2.2-7.1-5.81-7.1c-3.61 0-5.81 2.84-5.81 7.1s2.2 7.11 5.81 7.11zm0-21.1c8.5 0 14 5.81 14 14 0 8.19-5.49 14-14 14s-14-5.81-14-14c0-8.19 5.49-14 14-14zm106.85 0c2.2 0 4.03 1.72 4.07 4.47v23h-8.07v-23c0-2.75 1.79-4.47 4-4.47zm0-14.05a4.9 4.9 0 010 9.8h-.002a4.9 4.9 0 11.003-9.8zm25.24 14.05c5.6 0 8.61 3.98 8.61 10.01v17.46h-8.07v-15.2c0-3.55-1.67-4.73-3.77-4.73-3.12 0-5.49 2.63-5.49 8.23v11.7h-8.07v-23.25c0-2.64 1.73-4.2 3.77-4.2s3.76 1.56 3.76 4.2v1h.11a10.637 10.637 0 019.15-5.22zm-46.67 21.1c3.61 0 5.82-2.86 5.82-7.11s-2.219-7.1-5.82-7.1c-3.6 0-5.81 2.84-5.81 7.1s2.21 7.11 5.81 7.11zm0-21.1c8.511 0 14 5.81 14 14 0 8.19-5.489 14-14 14-8.51 0-14-5.81-14-14 0-8.19 5.5-14 14-14zm-25.94 7c-3.5 0-5.65 2.58-5.65 7s2.15 7 5.65 7a5.407 5.407 0 004.9-2.69h.1l5.87 3.77c-2.04 3.98-6.3 5.92-11.14 5.92-8.4 0-13.57-5.81-13.57-14 0-8.19 5.17-14 13.57-14 4.84 0 9.14 1.92 11.14 5.92l-5.87 3.77h-.1a5.406 5.406 0 00-4.9-2.69zm-25.46-7c5.6 0 8.61 3.98 8.63 10.01v17.46h-8.07v-15.2c0-3.55-1.67-4.73-3.77-4.73-3.12 0-5.49 2.63-5.49 8.23v11.7h-8.08v-23.27c0-2.64 1.7-4.18 3.75-4.18s3.77 1.56 3.77 4.2v1h.11a10.627 10.627 0 019.15-5.22zm-100.23 12.4a9.966 9.966 0 00.54 3.01l9-6.67a4.48 4.48 0 00-4.12-2.34c-2.55 0-5.42 1.92-5.42 6zm7.82 9a8.32 8.32 0 006.89-4.44l5.31 3.84c-2.03 4.13-6.17 7.19-13.17 7.19a13.68 13.68 0 01-9-3.4c-3.52 2.34-6.52 3.34-9.52 3.34-6.05 0-10.32-4.05-10.32-10.13V6.845c0-2.74 1.82-4.46 4-4.46 2.18 0 4 1.72 4 4.46v25.81c0 2.6 1.14 4 3.53 4 1.3 0 2.71-.75 4.54-1.75a16.647 16.647 0 01-1.3-6.57c0-5.71 4.07-12.81 12.62-12.81 7.41 0 11.39 4.31 13.05 9.72l-14.27 10.24a5.181 5.181 0 003.64 1.44z" fill-rule="evenodd"></path></symbol><symbol id="SvgNotificationoutline"><path d="M12 24a2.49 2.49 0 002.5-2.46h-5A2.48 2.48 0 0012 24zM21.13 18.2l-1.62-1.58v-6.16c0-3.78-2.05-6.94-5.63-7.78v-.83a1.88 1.88 0 00-3.76 0v.83c-3.59.84-5.63 4-5.63 7.78v6.16L2.87 18.2a1.23 1.23 0 00.88 2.11h16.49a1.23 1.23 0 00.89-2.11zM17 17.85H7v-7.39c0-3.05 1.89-5.54 5-5.54s5 2.49 5 5.54z"></path></symbol><symbol id="SvgHeartoutline"><path d="M21.19 2.24A6.76 6.76 0 0012 3.61a6.76 6.76 0 00-9.19-1.37A6.89 6.89 0 000 7.58c-.16 4.84 4 8.72 10.26 14.66l.12.12a2.32 2.32 0 003.23 0l.13-.12C20 16.29 24.15 12.41 24 7.57a6.89 6.89 0 00-2.81-5.33zm-9.07 18.15l-.12.12-.12-.12C6.17 15 2.4 11.46 2.4 7.86a4.18 4.18 0 014.2-4.37 4.68 4.68 0 014.28 3h2.25a4.66 4.66 0 014.27-3 4.18 4.18 0 014.2 4.37c0 3.6-3.77 7.14-9.48 12.53z"></path></symbol><symbol id="SvgMessageoutline"><path d="M18 12h-7.2a1.13 1.13 0 00-1.2 1.2 1.13 1.13 0 001.2 1.2H18a1.2 1.2 0 000-2.4zM6 7.2h12A1.13 1.13 0 0019.2 6 1.13 1.13 0 0018 4.8H6a1.2 1.2 0 000 2.4z"></path><path d="M21.6 0H2.4A2.41 2.41 0 000 2.4v14.4a2.41 2.41 0 002.4 2.4h16.8L24 24V2.4A2.41 2.41 0 0021.6 0zm0 18.24l-1.44-1.44H2.4V2.4h19.2z"></path><path d="M6 10.8h12a1.13 1.13 0 001.2-1.2A1.13 1.13 0 0018 8.4H6a1.2 1.2 0 100 2.4z"></path></symbol><symbol id="SvgUseroutline"><path d="M12 12a5.92 5.92 0 005.86-6A5.93 5.93 0 0012 0a5.93 5.93 0 00-5.86 6A5.92 5.92 0 0012 12zm0-9a3 3 0 11-2.93 3A3 3 0 0112 3zM22.46 22.13a10.68 10.68 0 00-10.46-8 10.68 10.68 0 00-10.46 8A1.5 1.5 0 002.61 24a1.46 1.46 0 001.78-1.08A7.72 7.72 0 0112 17.09a7.72 7.72 0 017.61 5.78A1.48 1.48 0 0021 24a1.12 1.12 0 00.36-.05 1.5 1.5 0 001.1-1.82z"></path></symbol></svg>