<svg xmlns:xlink="http://www.w3.org/1999/xlink" xmlns="http://www.w3.org/2000/svg" viewBox="0 0 16 16" display="flex" role="img" class="sc-bdVaJa src___StyledBox-sc-fochin-0 jAoXXs" width="16"  height="16" ><defs><symbol id="SvgPets"><path fill-rule="evenodd" d="M8.007 6c.195 0 .397 0 .585.035.082.017.165.043.247.078.526.209.968.678 1.313 1.147l.631.853.604.824.626.853.43.496c.868 1.013 1.727 2.156 1.528 3.676-.218.878-.765 1.765-1.748 2.017-.527.117-2.168-.346-3.95-.38l-.341-.003c-1.86 0-3.609.513-4.157.383-.982-.252-1.53-1.13-1.748-2.017-.225-1.764.983-3.025 1.966-4.163.66-.887 1.208-1.643 1.86-2.53.353-.47.788-.939 1.313-1.147.083-.035.165-.061.248-.079.146-.032.297-.04.445-.042L8.007 6zm.17 1.334h-.329l-.065.003a.535.535 0 00-.067.006l-.03.007-.027.01c-.184.074-.439.31-.732.7L5.39 10.153l-.328.442-.06.075c-.048.056-.328.377-.406.47-.965 1.121-1.318 1.788-1.257 2.55l.002.025.017.06c.14.469.38.775.651.882l.027.009.05-.003c.042-.002.09-.007.148-.013l.255-.032.934-.139c.866-.127 1.554-.199 2.248-.213l.396-.003c.7 0 1.374.057 2.2.17l1.154.17.256.033.173.02.069.005.047.002.07-.03c.26-.133.477-.433.607-.87l.014-.048.003-.031c.062-.731-.256-1.372-1.124-2.405l-.533-.618-.064-.08-1.508-2.055-.353-.476c-.25-.34-.484-.568-.683-.674l-.073-.034-.145-.008zM2.333 4.667a2.333 2.333 0 110 4.666 2.332 2.332 0 110-4.666zm11.334 0a2.332 2.332 0 110 4.666 2.333 2.333 0 110-4.666zM2.333 6a1 1 0 100 2 1 1 0 000-2zm11.334 0a1 1 0 100 2 1 1 0 000-2zM5 0a2.333 2.333 0 110 4.666A2.333 2.333 0 015 0zm6 0a2.333 2.333 0 110 4.666A2.333 2.333 0 0111 0zM5 1.333a1 1 0 100 2 1 1 0 000-2zm6 0a1 1 0 100 2 1 1 0 000-2z"></path></symbol></defs><use xlink:href="#SvgPets" fill="#A8B4C0"></use></svg>