<svg xmlns:xlink="http://www.w3.org/1999/xlink" xmlns="http://www.w3.org/2000/svg" viewBox="0 0 24 24" display="flex" role="img" class="sc-bdVaJa src___StyledBox-sc-fochin-0 jAoXXs" width="24"  height="24" ><defs><symbol id="SvgCouch"><path d="M21.46 7.92V4.56A4.57 4.57 0 0016.88 0H7.23a4.57 4.57 0 00-4.58 4.56V8A3.12 3.12 0 000 11.16v6.6a3.61 3.61 0 002.65 3.48v1.32A1.39 1.39 0 004.1 24h.84a1.39 1.39 0 001.45-1.44v-1.2H17.6v1.2A1.39 1.39 0 0019.05 24h.84a1.39 1.39 0 001.45-1.44v-1.32A3.6 3.6 0 0024 17.76v-6.6a3.11 3.11 0 00-2.54-3.24zm-17 11.4h-.72a1.62 1.62 0 01-1.69-1.56v-6.6a1.21 1.21 0 012.41 0zm13.14 0H6.51v-4.2a.64.64 0 01.72-.72h9.65a.77.77 0 01.72.72zm1.81-11a3.07 3.07 0 00-1.81 2.88v1.32a1.52 1.52 0 00-.72-.12H7.23a1.52 1.52 0 00-.72.12v-1.36A3.34 3.34 0 004.7 8.28V4.56A2.47 2.47 0 017.23 2h9.65a2.54 2.54 0 012.53 2.52zm2.77 9.48a1.7 1.7 0 01-1.69 1.56h-.72v-8.2a1.21 1.21 0 012.41 0z"></path></symbol></defs><use xlink:href="#SvgCouch" fill="#A8B4C0"></use></svg>