<svg xmlns:xlink="http://www.w3.org/1999/xlink" xmlns="http://www.w3.org/2000/svg" viewBox="0 0 24 24" display="flex" role="img" class="sc-bdVaJa src___StyledBox-sc-fochin-0 jAoXXs" width="24"  height="24" ><defs><symbol id="SvgCar"><path d="M21.5 9.5l-1.2-4.2a3.94 3.94 0 00-3.6-2.8H7.3a3.64 3.64 0 00-3.6 2.8L2.5 9.5A4.49 4.49 0 000 13.6a4.58 4.58 0 002.1 3.9v1.9a2.11 2.11 0 002.1 2.1h1a2.11 2.11 0 002.1-2.1v-1.1h9.5v1.1a2.11 2.11 0 002.1 2.1h1a2.11 2.11 0 002.1-2.1v-1.9a4.73 4.73 0 002-3.9 4.6 4.6 0 00-2.5-4.1zM5.6 5.8a1.83 1.83 0 011.7-1.3h9.4a1.71 1.71 0 011.7 1.3l.9 3H4.7zm-.4 13.7H4.1v-1.2c.2 0 .4.1.6.1h.5zm14.6 0h-1.1v-1.1h.6a.75.75 0 00.5-.1zm-.5-3.2H4.7a2.7 2.7 0 010-5.4h14.7a2.69 2.69 0 012.7 2.7 2.84 2.84 0 01-2.8 2.7z"></path><path d="M19.3 12a1.6 1.6 0 101.6 1.6 1.6 1.6 0 00-1.6-1.6zM15.7 13.1H8.3a1 1 0 000 2h7.3a1 1 0 001-1 .92.92 0 00-.9-1zM4.7 12a1.6 1.6 0 101.6 1.6A1.6 1.6 0 004.7 12z"></path></symbol></defs><use xlink:href="#SvgCar" fill="#A8B4C0"></use></svg>