<svg xmlns:xlink="http://www.w3.org/1999/xlink" xmlns="http://www.w3.org/2000/svg" viewBox="0 0 24 24" display="flex" role="img" class="sc-bdVaJa src___StyledBox-sc-fochin-0 jAoXXs" width="24"  height="24" ><defs><symbol id="SvgHouseoutline"><path d="M23.42 10.85L13.37.61a2 2 0 00-2.85 0L.47 10.85a1.73 1.73 0 00-.42 1.87 1.66 1.66 0 001.48 1.06h1.06v7.88A2.24 2.24 0 004.7 24h3.7a2.24 2.24 0 002.12-2.34v-5.31h2.85v5.31A2.25 2.25 0 0015.49 24h3.6a2.39 2.39 0 002.22-2.22v-7.89h1.05a1.61 1.61 0 001.49-1.17 1.73 1.73 0 00-.43-1.87zm-4.31.84v9.94a.45.45 0 01-.1.17H15.6a.42.42 0 010-.14v-7.51H8.32v7.51a.26.26 0 010 .14h-3.5a.26.26 0 010-.14V11.58H2.85L12 2.3l9.21 9.39z"></path></symbol></defs><use xlink:href="#SvgHouseoutline" fill="#A8B4C0"></use></svg>