<svg xmlns:xlink="http://www.w3.org/1999/xlink" xmlns="http://www.w3.org/2000/svg" viewBox="0 0 24 24" display="flex" role="img" class="sc-bdVaJa src___StyledBox-sc-fochin-0 hBqeyd" width="24"  height="24" ><defs><symbol id="SvgGoto"><path d="M20 21.33H4A1.34 1.34 0 012.67 20V4A1.34 1.34 0 014 2.67h6.67a1.34 1.34 0 000-2.67h-8A2.67 2.67 0 000 2.67v18.66A2.68 2.68 0 002.67 24h18.66A2.68 2.68 0 0024 21.33v-8a1.34 1.34 0 00-2.67 0V20A1.34 1.34 0 0120 21.33zm-5.33-20A1.34 1.34 0 0016 2.67h3.45L7.28 14.84a1.33 1.33 0 001.88 1.88L21.33 4.55V8A1.34 1.34 0 0024 8V0h-8a1.34 1.34 0 00-1.33 1.33z"></path></symbol></defs><use xlink:href="#SvgGoto" fill="#A8B4C0"></use></svg>