<svg xmlns:xlink="http://www.w3.org/1999/xlink" xmlns="http://www.w3.org/2000/svg" viewBox="0 0 24 24" display="flex" role="img" class="sc-bdVaJa src___StyledBox-sc-fochin-0 jAoXXs" width="24"  height="24" ><defs><symbol id="SvgHobbies"><path d="M20.49 3.51a12 12 0 00-17 0A11.77 11.77 0 000 12a12 12 0 003.49 8.5A12.14 12.14 0 0012 24a12.34 12.34 0 008.5-3.49 12 12 0 00-.01-17zm1.41 7.41a11.74 11.74 0 00-6.75 2.84L13.4 12l6.32-6.32a9.35 9.35 0 012.18 5.24zM13.08 2a10.61 10.61 0 015.23 2.18L12 10.6l-1.76-1.75A12.38 12.38 0 0013.08 2zM11 2.1a10.65 10.65 0 01-2.17 5.34L5.67 4.28A9.18 9.18 0 0111 2.1zM4.25 5.58l3.16 3.27A9 9 0 012.07 11a9.54 9.54 0 012.18-5.42zM2.07 13a11.7 11.7 0 006.76-2.83l1.74 1.74-6.32 6.31A9.76 9.76 0 012.07 13zm8.83 8.94a10.53 10.53 0 01-5.23-2.18L12 13.43l1.74 1.74a11.76 11.76 0 00-2.84 6.76zm2.1-.12a9.53 9.53 0 012.18-5.34l3.16 3.16A9.23 9.23 0 0113 21.82zm6.75-3.6l-3.16-3.16a8.93 8.93 0 015.34-2.17 9.62 9.62 0 01-2.21 5.33z"></path></symbol></defs><use xlink:href="#SvgHobbies" fill="#A8B4C0"></use></svg>