<svg xmlns:xlink="http://www.w3.org/1999/xlink" xmlns="http://www.w3.org/2000/svg" viewBox="0 0 24 24" display="flex" role="img" class="sc-bdVaJa src___StyledBox-sc-fochin-0 jAoXXs" width="24"  height="24" ><defs><symbol id="SvgMultimedia"><path d="M10.44 21.18h3.12a.68.68 0 00.64-.62.61.61 0 00-.64-.63h-3.12a.63.63 0 100 1.25z"></path><path d="M17.21 0H6.79A2.8 2.8 0 004 2.71v18.58A2.8 2.8 0 006.79 24h10.42A2.8 2.8 0 0020 21.29V2.71A2.73 2.73 0 0017.21 0zm.64 21.29a.56.56 0 01-.64.62H6.79a.68.68 0 01-.64-.62v-2.4h11.7zm0-4.49H6.15V5.74h11.7zm0-13.15H6.15v-.94a.68.68 0 01.64-.62h10.42a.68.68 0 01.64.62z"></path></symbol></defs><use xlink:href="#SvgMultimedia" fill="#A8B4C0"></use></svg>