<svg xmlns:xlink="http://www.w3.org/1999/xlink" xmlns="http://www.w3.org/2000/svg" viewBox="0 0 24 24" display="flex" role="img" class="sc-bdVaJa src___StyledBox-sc-fochin-0 jAoXXs" width="24"  height="24" ><defs><symbol id="SvgEquipment"><path d="M23 18.9h-3.39V4.13a1 1 0 00-2.06 0v11.16a3.93 3.93 0 00-1.17-.44l-2-10.11a4.16 4.16 0 00-4.14-3.24H6.3a1.86 1.86 0 00-1.91 1.8v7.31h-1.6A2.72 2.72 0 000 13.24v5a1.79 1.79 0 001 1.56 3.62 3.62 0 003.54 2.7 3.73 3.73 0 002.35-.83H13a4.2 4.2 0 005.85-.83H23a1 1 0 100-1.94zM4.54 20.55a1.51 1.51 0 110-3 1.51 1.51 0 110 3zm7.06-.83H8.13a3 3 0 00.08-.72 3.58 3.58 0 00-3.67-3.46 3.78 3.78 0 00-2.48.93v-3.23a.71.71 0 01.73-.68H6.3a2.52 2.52 0 012.18 1.22c.38.68 1.52 2.61 3.52 2.87a3.65 3.65 0 00-.59 2 3.56 3.56 0 00.19 1.07zm.84-5c-.72 0-1.41-.61-2.15-1.9a4.59 4.59 0 00-3.84-2.24V3.45h3.79a2.11 2.11 0 012.11 1.65l1.92 9.66zm3.07 5.79a1.93 1.93 0 112-1.92 2 2 0 01-2 1.96z"></path></symbol></defs><use xlink:href="#SvgEquipment" fill="#A8B4C0"></use></svg>