<svg xmlns:xlink="http://www.w3.org/1999/xlink" xmlns="http://www.w3.org/2000/svg" viewBox="0 0 24 24" display="flex" role="img" class="sc-bdVaJa src___StyledBox-sc-fochin-0 jAoXXs" width="24"  height="24" ><defs><symbol id="SvgServices"><path d="M23.7 8.07a1.09 1.09 0 00-1.5 0l-2 1.93-2.4-2.33a5.1 5.1 0 00-7 0L9 9.27a.68.68 0 01-1 0 .67.67 0 010-1L11.4 5H18a.94.94 0 001-1 1 1 0 00-1-1h-7a.91.91 0 00-.7.3L6.5 6.88a2.63 2.63 0 000 3.78 2.93 2.93 0 003.9 0l1.8-1.59a3.16 3.16 0 014.2 0l4.5 4.27a.5.5 0 010 .6.45.45 0 01-.5 0l-2.1-2a1.09 1.09 0 00-1.5 0 1 1 0 000 1.39l2.1 2 .5.5a.45.45 0 010 .5.45.45 0 01-.5 0l-2.6-2.39a1.09 1.09 0 00-1.5 0 1 1 0 000 1.39l2.6 2.39a.45.45 0 010 .5.5.5 0 01-.5 0l-2.6-2.39a1.09 1.09 0 00-1.5 0 .94.94 0 00-.26.9 2.25 2.25 0 00-.24-.3 1.76 1.76 0 00-1.3-.6 1.81 1.81 0 00-.7-1.19 2.09 2.09 0 00-1.3-.7 2.33 2.33 0 00-.7-1.29 2.62 2.62 0 00-1.3-.6 1.81 1.81 0 00-.7-1.19 2.44 2.44 0 00-2.3-.6L1.8 8.07a1.09 1.09 0 00-1.5 0 1 1 0 000 1.39l2 1.89-.6.6a2 2 0 00-.7 1.59 2.34 2.34 0 00.7 1.59 2.18 2.18 0 00.8.5 2.37 2.37 0 00.7 1.89 1.76 1.76 0 001.3.6 1.86 1.86 0 00.7 1.19 2.34 2.34 0 001.7.7 2.92 2.92 0 00.9-.2.76.76 0 00.4.39 2.11 2.11 0 001.7.8 2.34 2.34 0 001.7-.7l.4-.3.4.29a2.41 2.41 0 003.4 0l.4-.39a2.9 2.9 0 00.9.19 2.33 2.33 0 001.7-.69 2.54 2.54 0 00.7-1.19 3.1 3.1 0 001.3-.6 2.26 2.26 0 00.7-1.89 2.18 2.18 0 00.8-.5 2 2 0 00.7-1.59 2.34 2.34 0 00-.7-1.59l-.6-.6 2-1.89a1.07 1.07 0 000-1.48zm-20 5.67a.45.45 0 01-.5 0 .5.5 0 010-.6l1.2-1.09c0 .1.1 0 .2 0a.37.37 0 01.3.1.45.45 0 010 .5zm1 2.39a.45.45 0 010-.5l.5-.5L6.3 14a.37.37 0 01.3-.1.37.37 0 01.3.1.45.45 0 010 .5l-1.7 1.63a.28.28 0 01-.5 0zm4.3.3l-.7.57-1 .9c-.3.2-.5.2-.6.1a.45.45 0 010-.5l1.7-1.59a.37.37 0 01.3-.1.37.37 0 01.3.1.45.45 0 010 .52zm1.9 1.88l-.7.6a.45.45 0 01-.5 0 .45.45 0 010-.5l.7-.59a.5.5 0 01.6 0c0 .1 0 .4-.1.49zm3.5.9a.45.45 0 01-.5 0l-.9-1a2.71 2.71 0 00-.19-1l1.59 1.48a.45.45 0 010 .52z"></path></symbol></defs><use xlink:href="#SvgServices" fill="#A8B4C0"></use></svg>