<svg xmlns:xlink="http://www.w3.org/1999/xlink" xmlns="http://www.w3.org/2000/svg" viewBox="0 0 24 24" display="flex" role="img" class="sc-bdVaJa src___StyledBox-sc-fochin-0 jAoXXs" width="24"  height="24" ><defs><symbol id="SvgClothes"><path d="M23.38 4.23L17 1.11a1.4 1.4 0 00-.4-.11h-.08a1.12 1.12 0 00-1.21.94 3.39 3.39 0 01-6.7 0A1.09 1.09 0 007.56 1a1 1 0 00-.59.1L.62 4.22A1.1 1.1 0 000 5.2v7a1.12 1.12 0 001.13 1.1h2.94v6.65A3 3 0 007 23h10a3 3 0 002.89-3.08v-6.65h3a1.12 1.12 0 001.11-1.1v-7a1.1 1.1 0 00-.62-.94zm-5.73 15.69c0 .52-.33.88-.63.88H7c-.3 0-.62-.36-.62-.88v-.45h11.27zm4.09-8.85h-1.83V8.86a1.13 1.13 0 00-2.26 0v3.31a1 1 0 000 .18v4.92H6.34v-5V8.86a1.13 1.13 0 00-2.26 0v2.2H2.26V5.88l4.57-2.24a5.65 5.65 0 0010.32 0l4.59 2.25z"></path></symbol></defs><use xlink:href="#SvgClothes" fill="#A8B4C0"></use></svg>