<svg xmlns:xlink="http://www.w3.org/1999/xlink" xmlns="http://www.w3.org/2000/svg" viewBox="0 0 24 24" display="flex" role="img" class="sc-bdVaJa src___StyledBox-sc-fochin-0 jAoXXs" width="24"  height="24" ><defs><symbol id="SvgHolidays"><path d="M4.67 17.86l-1.85 1.87a1.07 1.07 0 000 1.53 1 1 0 00.76.33 1.15 1.15 0 00.76-.33l1.85-1.86a1.08 1.08 0 000-1.54 1 1 0 00-1.52 0zM4.89 12.05A1 1 0 003.8 11H1.09A1 1 0 000 12.05a1 1 0 001.09 1.1H3.8a1.1 1.1 0 001.09-1.1zM18.24 6.79a1 1 0 00.76-.32l1.85-1.87a1.05 1.05 0 000-1.53 1 1 0 00-1.52 0l-1.85 1.86a1.08 1.08 0 000 1.54 1 1 0 00.76.32zM12 4.82a1 1 0 001.08-1V1.1a1.09 1.09 0 10-2.17 0v2.63A1 1 0 0012 4.82zM4.89 6.47a1.18 1.18 0 00.76.32 1 1 0 00.76-.32 1.08 1.08 0 000-1.54L4.56 3.07a1 1 0 00-1.56 0A1.07 1.07 0 003 4.6zM19.11 17.64a1.06 1.06 0 00-1.52 0 1.08 1.08 0 000 1.54L19.44 21a1 1 0 00.76.33A1.17 1.17 0 0021 21a1.07 1.07 0 000-1.53zM22.91 11H20.2a1 1 0 00-1.09 1.09 1 1 0 001.09 1.1h2.71A1.09 1.09 0 0024 12.05 1 1 0 0022.91 11zM12 5.48a6.58 6.58 0 106.51 6.57A6.56 6.56 0 0012 5.48zm0 11.07a4.5 4.5 0 01-4.46-4.5A4.59 4.59 0 0112 7.45 4.5 4.5 0 0116.4 12a4.59 4.59 0 01-4.4 4.55z"></path><path d="M12 19.07a1 1 0 00-1.09 1.09v2.74a1.09 1.09 0 102.17 0v-2.74A1 1 0 0012 19.07z"></path></symbol></defs><use xlink:href="#SvgHolidays" fill="#A8B4C0"></use></svg>